<?xml version="1.0" encoding="iso-8859-1"?>
<!-- Generator: Adobe Illustrator 19.0.0, SVG Export Plug-In . SVG Version: 6.00 Build 0)  -->
<svg version="1.1" id="Layer_1" xmlns="http://www.w3.org/2000/svg" xmlns:xlink="http://www.w3.org/1999/xlink" x="0px" y="0px"
	 viewBox="0 0 512 512" style="enable-background:new 0 0 512 512;" xml:space="preserve">
<g>
	<g>
		<g>
			<path d="M211.622,375.47c-9.045,21.948-9.045,46.319,0,68.267h88.764c9.045-21.948,9.045-46.319,0-68.267H211.622z
				 M230.404,409.603c-4.71,0-8.533-3.814-8.533-8.533v-8.533c0-4.719,3.823-8.533,8.533-8.533c4.71,0,8.533,3.814,8.533,8.533
				v8.533C238.938,405.789,235.115,409.603,230.404,409.603z M238.938,435.203c0-9.429,7.637-17.067,17.067-17.067
				c9.429,0,17.067,7.637,17.067,17.067H238.938z M290.138,401.07c0,4.719-3.823,8.533-8.533,8.533s-8.533-3.814-8.533-8.533v-8.533
				c0-4.719,3.823-8.533,8.533-8.533s8.533,3.814,8.533,8.533V401.07z"/>
			<path d="M211.622,221.87c-9.045,21.948-9.045,46.319,0,68.267h88.764c9.045-21.948,9.045-46.319,0-68.267H211.622z
				 M230.404,256.003c-4.71,0-8.533-3.814-8.533-8.533v-8.533c0-4.719,3.823-8.533,8.533-8.533c4.71,0,8.533,3.814,8.533,8.533
				v8.533C238.938,252.189,235.115,256.003,230.404,256.003z M238.938,281.603c0-9.429,7.637-17.067,17.067-17.067
				c9.429,0,17.067,7.637,17.067,17.067H238.938z M290.138,247.47c0,4.719-3.823,8.533-8.533,8.533s-8.533-3.814-8.533-8.533v-8.533
				c0-4.719,3.823-8.533,8.533-8.533s8.533,3.814,8.533,8.533V247.47z"/>
			<path d="M332.817,0H179.191c-18.816,0-34.125,15.309-34.125,34.116v443.768c0,18.807,15.309,34.116,34.125,34.116h153.626
				c18.816,0,34.116-15.309,34.116-34.116V34.116C366.933,15.309,351.633,0,332.817,0z M313.6,455.97
				c-1.425,2.961-4.412,4.83-7.689,4.83h-99.814c-3.277,0-6.272-1.869-7.689-4.83c-14.191-29.466-14.191-63.266,0-92.732
				c1.417-2.961,4.412-4.838,7.689-4.838h99.814c3.277,0,6.263,1.877,7.689,4.838C327.791,392.704,327.791,426.505,313.6,455.97z
				 M313.6,302.37c-1.425,2.961-4.412,4.83-7.689,4.83h-99.814c-3.277,0-6.272-1.869-7.689-4.83
				c-14.191-29.466-14.191-63.266,0-92.732c1.417-2.961,4.412-4.838,7.689-4.838h99.814c3.277,0,6.263,1.877,7.689,4.838
				C327.791,239.104,327.791,272.905,313.6,302.37z M313.6,148.77c-1.425,2.961-4.412,4.83-7.689,4.83h-99.814
				c-3.277,0-6.272-1.869-7.689-4.83c-14.191-29.466-14.191-63.266,0-92.732c1.417-2.961,4.412-4.838,7.689-4.838h99.814
				c3.277,0,6.263,1.877,7.689,4.838C327.791,85.504,327.791,119.305,313.6,148.77z"/>
			<path d="M211.622,68.27c-9.045,21.948-9.045,46.319,0,68.267h88.764c9.045-21.948,9.045-46.319,0-68.267H211.622z
				 M230.404,102.403c-4.71,0-8.533-3.814-8.533-8.533v-8.533c0-4.719,3.823-8.533,8.533-8.533c4.71,0,8.533,3.814,8.533,8.533
				v8.533C238.938,98.589,235.115,102.403,230.404,102.403z M238.938,128.003c0-9.429,7.637-17.067,17.067-17.067
				c9.429,0,17.067,7.637,17.067,17.067H238.938z M290.138,93.87c0,4.719-3.823,8.533-8.533,8.533s-8.533-3.814-8.533-8.533v-8.533
				c0-4.719,3.823-8.533,8.533-8.533s8.533,3.814,8.533,8.533V93.87z"/>
		</g>
	</g>
</g>
<g>
</g>
<g>
</g>
<g>
</g>
<g>
</g>
<g>
</g>
<g>
</g>
<g>
</g>
<g>
</g>
<g>
</g>
<g>
</g>
<g>
</g>
<g>
</g>
<g>
</g>
<g>
</g>
<g>
</g>
</svg>
