<?xml version="1.0" encoding="iso-8859-1"?>
<!-- Generator: Adobe Illustrator 19.0.0, SVG Export Plug-In . SVG Version: 6.00 Build 0)  -->
<svg version="1.1" id="Layer_1" xmlns="http://www.w3.org/2000/svg" xmlns:xlink="http://www.w3.org/1999/xlink" x="0px" y="0px"
	 viewBox="0 0 472.615 472.615" style="enable-background:new 0 0 472.615 472.615;" xml:space="preserve">
<g>
	<g>
		<path d="M294.967,216.697V58.659C294.967,26.263,268.705,0,236.307,0c-32.397,0-58.659,26.263-58.659,58.659v5.847h-42.688v19.692
			h42.688v23.351h-42.688v19.692h42.688v23.356h-42.688v19.692h42.688v46.407c-45.977,22.302-77.443,69.828-76.044,124.681
			c1.783,69.955,59.127,128.262,129.047,131.121c76.997,3.149,140.406-58.337,140.406-134.633
			C371.056,284.503,339.954,238.522,294.967,216.697z M236.306,422.021c-46.404,0-84.164-37.755-84.164-84.159
			c0-43.068,32.543-78.633,74.318-83.532V70.438h19.692V254.33c41.775,4.898,74.317,40.464,74.317,83.532
			C320.469,384.266,282.71,422.021,236.306,422.021z"/>
	</g>
</g>
<g>
	<g>
		<circle cx="236.307" cy="337.821" r="64.473"/>
	</g>
</g>
<g>
</g>
<g>
</g>
<g>
</g>
<g>
</g>
<g>
</g>
<g>
</g>
<g>
</g>
<g>
</g>
<g>
</g>
<g>
</g>
<g>
</g>
<g>
</g>
<g>
</g>
<g>
</g>
<g>
</g>
</svg>
